<svg width="99" height="90" viewBox="0 0 99 90" fill="none" xmlns="http://www.w3.org/2000/svg">
<rect x="14.8203" y="5.9281" width="84.0719" height="84.0719" rx="42.0359" fill="#F9EFF6"/>
<g clip-path="url(#clip0)">
<path d="M24.7073 38.6991C11.0836 38.6991 0 49.7827 0 63.4064C0 77.0301 11.0836 88.1137 24.7073 88.1137C38.331 88.1137 49.4146 77.0301 49.4146 63.4064C49.4146 49.7827 38.331 38.6991 24.7073 38.6991ZM24.7073 84.6718C12.9816 84.6718 3.44194 75.1321 3.44194 63.4064C3.44194 51.6807 12.9816 42.141 24.7073 42.141C36.433 42.141 45.9727 51.6807 45.9727 63.4064C45.9727 75.1321 36.433 84.6718 24.7073 84.6718Z" fill="black"/>
<path d="M24.7073 46.2715C15.259 46.2715 7.57227 53.9582 7.57227 63.4065C7.57227 72.8548 15.259 80.5415 24.7073 80.5415C34.1556 80.5415 41.8423 72.8548 41.8423 63.4065C41.8423 53.9582 34.1556 46.2715 24.7073 46.2715ZM24.7073 77.0996C17.1569 77.0996 11.0142 70.9569 11.0142 63.4065C11.0142 55.8561 17.1569 49.7134 24.7073 49.7134C32.2577 49.7134 38.4004 55.8561 38.4004 63.4065C38.4004 70.9569 32.2576 77.0996 24.7073 77.0996Z" fill="black"/>
<path d="M63.4065 0C49.7829 0 38.6993 11.0836 38.6993 24.7073C38.6993 38.331 49.7829 49.4146 63.4065 49.4146C77.0302 49.4146 88.1138 38.331 88.1138 24.7073C88.1138 11.0836 77.0302 0 63.4065 0ZM63.4065 45.9727C51.6808 45.9727 42.1413 36.433 42.1413 24.7073C42.1413 12.9816 51.6808 3.44194 63.4065 3.44194C75.1321 3.44194 84.6718 12.9816 84.6718 24.7073C84.6718 36.433 75.1321 45.9727 63.4065 45.9727Z" fill="black"/>
<path d="M63.4065 7.57227C62.4561 7.57227 61.6855 8.34274 61.6855 9.29324C61.6855 10.2437 62.4561 11.0142 63.4065 11.0142C70.9569 11.0142 77.0996 17.1569 77.0996 24.7073C77.0996 25.6578 77.8702 26.4283 78.8205 26.4283C79.7709 26.4283 80.5415 25.6578 80.5415 24.7073C80.5415 15.259 72.8548 7.57227 63.4065 7.57227Z" fill="black"/>
<path d="M69.0357 29.8751L62.7122 29.8191C63.5363 28.4725 63.8048 27.363 63.7165 25.8112H65.3599C66.3102 25.8112 67.0809 25.0407 67.0809 24.0902C67.0809 23.1397 66.3102 22.3692 65.3599 22.3692H62.8505C62.4136 21.6671 61.7961 20.4602 61.8004 19.4832C61.8004 19.4807 61.8004 19.4785 61.8004 19.4761C61.8004 19.4739 61.8004 19.4718 61.8004 19.4696C61.7988 19.0651 61.8873 18.5502 62.5884 18.1542C63.5857 17.5911 65.0828 17.6863 65.8023 18.1238C66.453 18.5194 66.9578 19.0725 67.0884 19.5327C67.3478 20.4471 68.2988 20.9783 69.2137 20.7188C70.128 20.4595 70.6591 19.5079 70.3998 18.5936C70.0291 17.2862 69.0051 16.0429 67.5909 15.183C65.7103 14.0396 62.8949 14.0285 60.8964 15.1572C59.2826 16.0684 58.3584 17.6372 58.3588 19.4634V19.4682V19.4811V19.482C58.3569 20.4999 58.6367 21.5053 58.9909 22.3691H58.5304C57.58 22.3691 56.8094 23.1395 56.8094 24.09C56.8094 25.0405 57.58 25.811 58.5304 25.811H60.2689C60.3751 26.9844 60.2284 27.4824 59.1873 28.881L57.9487 30.4385C57.5391 30.9534 57.4589 31.6568 57.7422 32.2505C58.0254 32.8444 58.6224 33.2248 59.2804 33.2306L69.0058 33.3167H69.0214C69.9647 33.3167 70.7336 32.5562 70.7421 31.6108C70.7498 30.6607 69.986 29.8835 69.0357 29.8751Z" fill="black"/>
<path d="M26.6499 62.1882C26.5048 62.1369 26.3644 62.087 26.2284 62.0383V58.4055C26.4446 58.5229 26.601 58.6589 26.6922 58.7888C27.2381 59.5668 28.3116 59.7548 29.0895 59.2089C29.8676 58.663 30.0557 57.5896 29.5096 56.8116C28.8582 55.8833 27.7138 55.0978 26.2284 54.785C26.2277 53.835 25.4576 53.0652 24.5074 53.0652C23.5569 53.0652 22.7865 53.8357 22.7865 54.7862V54.9027C22.6595 54.935 22.5314 54.9706 22.4023 55.0095C20.5473 55.5683 19.1475 57.3657 18.9981 59.3803C18.8497 61.3806 19.9093 63.1162 21.8329 64.0231C22.0532 64.1269 22.3786 64.2641 22.7866 64.426V68.9582C22.3215 68.7642 21.9156 68.4968 21.6384 68.1526C21.0424 67.4124 19.9589 67.2957 19.2185 67.8919C18.4783 68.488 18.3617 69.5715 18.9578 70.3117C19.9477 71.5407 21.3734 72.2325 22.7887 72.5583C22.8353 73.4671 23.5869 74.1896 24.5074 74.1896C25.3853 74.1896 26.1095 73.5324 26.2152 72.6832C28.7371 72.2516 30.5091 70.5861 30.7978 68.3139C31.1311 65.6883 29.4253 63.1694 26.6499 62.1882ZM22.4304 59.6353C22.4543 59.3132 22.5891 58.9944 22.7863 58.7459V60.5726C22.5197 60.3198 22.4027 60.0096 22.4304 59.6353ZM27.383 67.8803C27.309 68.4636 26.9004 68.9004 26.2284 69.1416V65.7833C27.1267 66.3562 27.4675 67.215 27.383 67.8803Z" fill="black"/>
<path d="M64.8167 54.365C64.4947 53.9046 63.9682 53.6305 63.4065 53.6305C62.8448 53.6305 62.3183 53.9046 61.9963 54.365L52.9129 67.3513C52.5451 67.877 52.5005 68.5637 52.7967 69.1328C53.0932 69.702 53.6815 70.0587 54.323 70.0587H57.4898V82.8559C57.4898 83.8064 58.2605 84.5768 59.2108 84.5768H67.6024C68.5527 84.5768 69.3234 83.8064 69.3234 82.8559V70.0587H72.4902C73.1319 70.0587 73.72 69.7018 74.0165 69.1328C74.3128 68.5637 74.2681 67.8772 73.9003 67.3513L64.8167 54.365ZM67.6022 66.6168C66.6519 66.6168 65.8813 67.3873 65.8813 68.3378V81.1349H60.9316V68.3378C60.9316 67.3873 60.1609 66.6168 59.2106 66.6168H57.6268L63.4063 58.354L69.1861 66.6168H67.6022Z" fill="black"/>
<path d="M23.2972 33.7488C23.6192 34.2092 24.1457 34.4833 24.7074 34.4833C25.2691 34.4833 25.7956 34.2092 26.1176 33.7488L35.2012 20.7625C35.569 20.2368 35.6137 19.5501 35.3174 18.981C35.0209 18.4119 34.4326 18.0551 33.791 18.0551H30.6243V5.25796C30.6243 4.30747 29.8538 3.53699 28.9033 3.53699H20.5117C19.5612 3.53699 18.7907 4.30747 18.7907 5.25796V18.0551H15.6238C14.9822 18.0551 14.394 18.412 14.0974 18.981C13.8011 19.5501 13.8458 20.2366 14.2136 20.7625L23.2972 33.7488ZM20.5117 21.4971C21.4622 21.4971 22.2327 20.7266 22.2327 19.7761V6.97893H27.1823V19.7761C27.1823 20.7266 27.9528 21.4971 28.9033 21.4971H30.4871L24.7076 29.7598L18.928 21.4971H20.5117Z" fill="black"/>
</g>
<defs>
<clipPath id="clip0">
<rect width="88.1138" height="88.1138" fill="white"/>
</clipPath>
</defs>
</svg>
