<svg width="103" height="90" viewBox="0 0 103 90" fill="none" xmlns="http://www.w3.org/2000/svg">
<rect x="18.8624" y="5.9281" width="84.0719" height="84.0719" rx="42.0359" fill="#F9EFF6"/>
<g clip-path="url(#clip0)">
<path d="M81.1949 52.3669H72.8522V45.9429C72.8522 40.1664 68.1671 35.4668 62.4084 35.4668C56.6496 35.4668 51.9643 40.1663 51.9643 45.9429V52.3669H35.8804V45.9429C35.8804 40.1664 31.1953 35.4668 25.4364 35.4668C19.6776 35.4668 14.9925 40.1663 14.9925 45.9429V52.3669H6.6497C5.70211 52.3669 4.93399 53.1374 4.93399 54.0879C4.93399 55.0384 5.70211 55.8089 6.6497 55.8089H7.29772V80.5234C7.29772 81.4739 8.06585 82.2444 9.01343 82.2444H78.831C79.7785 82.2444 80.5467 81.4739 80.5467 80.5234V55.8089H81.1947C82.1423 55.8089 82.9104 55.0384 82.9104 54.0879C82.9104 53.1374 82.1424 52.3669 81.1949 52.3669ZM55.3957 45.9429C55.3957 42.0643 58.5415 38.9087 62.4084 38.9087C66.2752 38.9087 69.4208 42.0641 69.4208 45.9429V52.3669H55.3957V45.9429ZM18.4239 45.9429C18.4239 42.0643 21.5697 38.9087 25.4364 38.9087C29.3031 38.9087 32.449 42.0641 32.449 45.9429V52.3669H18.4239V45.9429ZM18.632 78.8024V63.1507H69.2127V78.8024H18.632ZM77.1152 78.8024H72.6439V61.4297C72.6439 60.4792 71.8758 59.7088 70.9282 59.7088H16.9163C15.9687 59.7088 15.2006 60.4792 15.2006 61.4297V78.8024H10.7293V55.8089H77.1154V78.8024H77.1152Z" fill="black"/>
<path d="M74.3725 5.86938C66.9442 5.86938 60.9006 11.9308 60.9006 19.3814C60.9006 26.832 66.9442 32.8935 74.3725 32.8935C81.8009 32.8935 87.8445 26.832 87.8445 19.3814C87.8445 11.9308 81.8009 5.86938 74.3725 5.86938ZM74.3725 29.4515C68.8361 29.4515 64.332 24.934 64.332 19.3814C64.332 13.8289 68.8361 9.31133 74.3725 9.31133C79.909 9.31133 84.413 13.8287 84.413 19.3814C84.413 24.9341 79.909 29.4515 74.3725 29.4515Z" fill="black"/>
<path d="M78.7226 20.2781L76.0882 18.4729V14.6842C76.0882 13.7337 75.32 12.9633 74.3724 12.9633C73.4249 12.9633 72.6567 13.7337 72.6567 14.6842V19.3814C72.6567 19.9501 72.9366 20.4818 73.4046 20.8025L76.7871 23.1201C77.0833 23.323 77.4199 23.4202 77.7534 23.4202C78.3011 23.4202 78.8395 23.1578 79.1716 22.6699C79.7061 21.8851 79.5052 20.8142 78.7226 20.2781Z" fill="black"/>
<path d="M43.9222 32.8935C51.3505 32.8935 57.3941 26.832 57.3941 19.3814C57.3941 11.9308 51.3505 5.86938 43.9222 5.86938C36.4939 5.86938 30.4503 11.9308 30.4503 19.3814C30.4503 26.832 36.4939 32.8935 43.9222 32.8935ZM43.9222 9.31133C49.4586 9.31133 53.9627 13.8289 53.9627 19.3814C53.9627 24.934 49.4586 29.4515 43.9222 29.4515C38.3858 29.4515 33.8817 24.934 33.8817 19.3814C33.8817 13.8289 38.3858 9.31133 43.9222 9.31133Z" fill="black"/>
<path d="M39.6258 21.1024H43.9222C44.8698 21.1024 45.6379 20.3319 45.6379 19.3815V14.6842C45.6379 13.7337 44.8698 12.9633 43.9222 12.9633C42.9747 12.9633 42.2065 13.7337 42.2065 14.6842V17.6605H39.6258C38.6782 17.6605 37.9101 18.431 37.9101 19.3815C37.9101 20.3319 38.6782 21.1024 39.6258 21.1024Z" fill="black"/>
<path d="M26.9438 19.3814C26.9438 11.9308 20.9003 5.86938 13.4719 5.86938C6.04359 5.86938 0 11.9308 0 19.3814C0 26.832 6.04359 32.8935 13.4719 32.8935C20.9003 32.8935 26.9438 26.832 26.9438 19.3814ZM3.43142 19.3814C3.43142 13.8287 7.9355 9.31133 13.4719 9.31133C19.0083 9.31133 23.5124 13.8289 23.5124 19.3814C23.5124 24.934 19.0083 29.4515 13.4719 29.4515C7.9355 29.4515 3.43142 24.9341 3.43142 19.3814Z" fill="black"/>
<path d="M15.1876 19.3815V14.6842C15.1876 13.7337 14.4195 12.9633 13.4719 12.9633C12.5243 12.9633 11.7562 13.7337 11.7562 14.6842V18.6535L8.99337 21.3428C8.31343 22.0049 8.29713 23.0943 8.957 23.7765C9.29345 24.1243 9.74073 24.299 10.1884 24.299C10.6188 24.299 11.0498 24.1375 11.383 23.813L14.6665 20.6164C14.9997 20.2924 15.1876 19.8468 15.1876 19.3815Z" fill="black"/>
</g>
<defs>
<clipPath id="clip0">
<rect width="87.8443" height="88.1138" fill="white"/>
</clipPath>
</defs>
</svg>
