<svg width="95" height="90" viewBox="0 0 95 90" fill="none" xmlns="http://www.w3.org/2000/svg">
<rect x="10.7785" y="5.9281" width="84.0719" height="84.0719" rx="42.0359" fill="#F9EFF6"/>
<g clip-path="url(#clip0)">
<path d="M56.7028 25.7766C57.0286 26.1268 57.4852 26.3257 57.9633 26.3257H66.0749C67.0252 26.3257 67.7959 25.5552 67.7959 24.6047V23.7468C67.7959 10.6528 57.1469 0 44.057 0C30.9671 0 20.3181 10.6528 20.3181 23.7468V81.534C20.3181 85.1621 23.2688 88.1138 26.8961 88.1138H61.2182C64.8453 88.1138 67.7962 85.1621 67.7962 81.534V32.9349C67.7962 31.9844 67.0256 31.214 66.0753 31.214H54.3967C53.9106 31.214 53.4469 31.4196 53.1208 31.7802C50.7333 34.4179 47.3184 35.8821 43.7656 35.8005C37.2227 35.6484 31.9833 30.4017 31.8376 23.8556C31.7632 20.5183 33.0097 17.3724 35.347 14.9974C37.6834 12.6233 40.8054 11.3221 44.1356 11.3481C50.5141 11.3878 55.8369 16.3993 56.2533 22.7569C56.291 23.3302 56.289 23.9096 56.2473 24.4795C56.2122 24.9565 56.3774 25.4263 56.7028 25.7766ZM44.1568 7.90615C44.1229 7.90597 44.0892 7.90597 44.0554 7.90597C39.8246 7.90597 35.8638 9.56465 32.8934 12.5832C29.8982 15.6268 28.301 19.6571 28.3961 23.9324C28.4858 27.9617 30.1161 31.7638 32.9868 34.6384C35.8576 37.5131 39.6571 39.1478 43.6852 39.2416C47.9748 39.3375 52.1118 37.6784 55.1337 34.6561H64.3539V81.5342C64.3539 83.2644 62.9471 84.672 61.2178 84.672H26.896C25.1667 84.672 23.7598 83.2644 23.7598 81.5342V23.7468C23.76 12.5507 32.8652 3.44194 44.057 3.44194C54.9599 3.44194 63.8824 12.0862 64.3359 22.8838H59.7068C59.7018 22.7662 59.6954 22.649 59.6877 22.532C59.1539 14.3816 52.3319 7.95726 44.1568 7.90615Z" fill="black"/>
<path d="M30.5039 79.6907H57.6103C58.5606 79.6907 59.3312 78.9202 59.3312 77.9697V42.0346C59.3312 41.4166 59 40.8461 58.4632 40.54C57.9268 40.2336 57.2669 40.2384 56.7348 40.553C52.9098 42.8128 48.5261 44.0074 44.0571 44.0074C39.5881 44.0074 35.2044 42.8128 31.3794 40.553C30.8471 40.2384 30.1873 40.2338 29.651 40.54C29.1142 40.8461 28.783 41.4166 28.783 42.0346V77.9697C28.783 78.9202 29.5536 79.6907 30.5039 79.6907ZM32.2249 44.873C35.9184 46.5647 39.9571 47.4493 44.0571 47.4493C48.1571 47.4493 52.1958 46.5647 55.8893 44.873V76.2488H32.2249V44.873Z" fill="black"/>
</g>
<defs>
<clipPath id="clip0">
<rect width="88.1138" height="88.1138" fill="white"/>
</clipPath>
</defs>
</svg>
